<svg width="512" height="512" viewBox="0 0 512 512" fill="none" xmlns="http://www.w3.org/2000/svg">
<g clip-path="url(#clip0_24864_56102)">
<path d="M107.922 469.898L147.362 401.664C195.756 317.943 316.497 317.943 364.89 401.422L404.33 469.656L331.499 511.758L275.121 414.488C266.652 399.97 245.601 399.97 237.132 414.488L180.996 512L107.922 469.898Z" fill="#B2DB64"/>
<path d="M42.1022 107.917L110.336 147.357C194.057 195.751 194.057 316.491 110.579 364.885L42.3441 404.325L0.241907 331.493L97.5124 275.115C112.03 266.647 112.03 245.595 97.5124 237.127L0 180.991L42.1022 107.917Z" fill="#B2DB64"/>
<path d="M404.08 42.1021L364.64 110.336C316.247 194.057 195.506 194.057 147.112 110.579L107.672 42.3441L180.504 0.241907L236.882 97.5123C245.351 112.03 266.402 112.03 274.87 97.5123L331.249 0L404.08 42.1021Z" fill="#B2DB64"/>
<path d="M469.899 404.083L401.664 364.643C317.944 316.25 317.944 195.509 401.422 147.115L469.657 107.675L511.759 180.507L414.489 236.885C399.971 245.354 399.971 266.405 414.489 274.873L512.001 331.01L469.899 404.083Z" fill="#B2DB64"/>
<path d="M256.002 304.151C282.996 304.151 304.879 282.268 304.879 255.274C304.879 228.28 282.996 206.397 256.002 206.397C229.008 206.397 207.125 228.28 207.125 255.274C207.125 282.268 229.008 304.151 256.002 304.151Z" fill="#B2DB64"/>
</g>
<defs>
<clipPath id="clip0_24864_56102">
<rect width="512" height="512" fill="white"/>
</clipPath>
</defs>
</svg>
